# xmcd CD database file
#
# Track frame offsets:
#	150
#	14307
#	39002
#	62134
#	76150
#	96958
#	121453
#	136872
#	151254
#	174021
#	193356
#	208481
#	230393
#	249953
#
# Disc length: 3606 seconds
#
# Revision: 1
# Processed by: cddbd v1.4PL0 Copyright (c) Steve Scherf et al.
# Submitted via: CDex 1.50
#
DISCID=af0e140e
DTITLE=En sourdine - En sourdine
DYEAR=2000
DGENRE=Jazz
TTITLE0=When You're smiling
TTITLE1=Satin Doll
TTITLE2=Blues de l'Impasse
TTITLE3=Just You Juste Me
TTITLE4=Bye Bye Black Bird
TTITLE5=Wellow Weep For Me
TTITLE6=Did I Remember
TTITLE7=Buddy Bolden Blues
TTITLE8=Out Of Nowhere
TTITLE9=Nuages
TTITLE10=It Had to be You
TTITLE11=En sourdine
TTITLE12=These Foolish Thing
TTITLE13=All of Me
EXTD=YEAR: 2000
EXTT0=
EXTT1=
EXTT2=
EXTT3=
EXTT4=
EXTT5=
EXTT6=
EXTT7=
EXTT8=
EXTT9=
EXTT10=
EXTT11=
EXTT12=
EXTT13=
PLAYORDER=
